<svg t="1777432415028" class="icon" viewBox="-120 -120 1264 1264" version="1.1" xmlns="http://www.w3.org/2000/svg" p-id="3986" width="200" height="200">
  <rect x="-120" y="-120" width="1264" height="1264" fill="#FFFFFF"></rect>
  <path d="M950.857143 365.714286V0H585.142857v73.142857H512v146.285714H438.857143V0H73.142857v73.142857H0v877.714286h146.285714v73.142857h731.428572v-73.142857h146.285714V365.714286h-73.142857z" fill="#000000" p-id="3987"></path>
  <path d="M877.714286 73.142857H658.285714v73.142857H585.142857v146.285715H365.714286V73.142857H146.285714v73.142857H73.142857v731.428572h146.285714v73.142857h585.142858v-73.142857h146.285714V438.857143h-73.142857V73.142857z" fill="#FFBD5A" p-id="3988"></path>
  <path d="M804.571429 585.142857H292.571429v73.142857H146.285714v73.142857H73.142857v146.285715h146.285714v73.142857h585.142858v-73.142857h146.285714v-73.142857h-73.142857v-73.142858h-73.142857V585.142857z" fill="#FFFFFF" p-id="3989"></path>
  <path d="M512 950.857143h146.285714V658.285714H512z" fill="#FB7C7C" p-id="3990"></path>
  <path d="M438.857143 512H219.428571V438.857143h219.428572v73.142857zM804.571429 512H585.142857V438.857143h219.428572v73.142857z" fill="#FFFFFF" p-id="3991"></path>
  <path d="M365.714286 512H292.571429V438.857143h73.142857v73.142857zM658.285714 512h73.142857V438.857143H658.285714v73.142857zM658.285714 658.285714V512H512v146.285714H365.714286v73.142857h146.285714V658.285714h146.285714zM658.285714 658.285714v73.142857h73.142857V658.285714H658.285714z" fill="#000000" p-id="3992"></path>
</svg>
